<svg width="1440" height="2456" viewBox="0 0 1440 2456" fill="none" xmlns="http://www.w3.org/2000/svg">
<path fill-rule="evenodd" clip-rule="evenodd" d="M-204 541.248L-128.009 586.697C-52.0177 632.147 99.9647 723.046 226.058 734.589C352.151 746.133 452.355 678.321 547.381 594.639C642.406 510.956 732.254 411.402 850.581 399.139C968.907 386.876 1115.71 461.904 1239.22 465.512C1362.72 469.121 1462.92 401.309 1513.03 367.403L1563.13 333.497L1609.73 476.337L1554.45 494.372C1499.17 512.406 1388.61 548.476 1278.05 584.545C1167.49 620.615 1056.93 656.684 946.371 692.754C835.812 728.823 725.252 764.893 614.693 800.962C504.133 837.032 393.574 873.101 283.014 909.171C172.455 945.24 61.8952 981.31 6.61545 999.345L-48.6643 1017.38L-204 541.248Z" fill="#FEFBF6"/>
<path fill-rule="evenodd" clip-rule="evenodd" d="M1735.92 861.005L1659.93 815.556C1583.94 770.106 1431.96 679.207 1305.86 667.663C1179.77 656.12 1079.57 723.931 984.539 807.614C889.513 891.297 799.665 990.85 681.339 1003.11C563.013 1015.38 416.208 940.348 292.704 936.74C169.2 933.132 68.9964 1000.94 18.8944 1034.85L-31.2075 1068.76L-77.8082 925.916L-22.5285 907.881C32.7514 889.846 143.311 853.777 253.87 817.707C364.43 781.638 474.989 745.568 585.549 709.499C696.108 673.429 806.668 637.36 917.227 601.29C1027.79 565.221 1138.35 529.151 1248.91 493.082C1359.47 457.012 1470.02 420.943 1525.3 402.908L1580.58 384.873L1735.92 861.005Z" fill="#FEFBF6"/>
<path fill-rule="evenodd" clip-rule="evenodd" d="M-190.015 1053L-139.091 1135.16C-88.167 1217.33 13.6812 1381.65 136.45 1465.17C259.218 1548.69 402.907 1551.4 550.779 1537.94C698.652 1524.49 850.709 1494.88 979.753 1554.16C1108.8 1613.43 1214.83 1761.59 1339.69 1837.03C1464.55 1912.47 1608.24 1915.18 1680.08 1916.53L1751.93 1917.89L1714.27 2063.34L1646.61 2045.83C1578.95 2028.31 1443.63 1993.28 1308.31 1958.24C1172.99 1923.21 1037.67 1888.18 902.348 1853.14C767.028 1818.11 631.707 1783.08 496.387 1748.04C361.066 1713.01 225.746 1677.98 90.425 1642.94C-44.8956 1607.91 -180.216 1572.88 -247.876 1555.36L-315.537 1537.85L-190.015 1053Z" fill="#FEFBF6"/>
<path fill-rule="evenodd" clip-rule="evenodd" d="M1613.58 2455.46L1562.65 2373.3C1511.73 2291.13 1409.88 2126.81 1287.11 2043.29C1164.35 1959.77 1020.66 1957.06 872.784 1970.51C724.911 1983.97 572.854 2013.58 443.81 1954.3C314.765 1895.03 208.733 1746.86 83.8726 1671.43C-40.9879 1595.99 -184.677 1593.28 -256.521 1591.92L-328.365 1590.57L-290.709 1445.12L-223.048 1462.63C-155.388 1480.15 -20.0677 1515.18 115.253 1550.22C250.574 1585.25 385.894 1620.28 521.215 1655.31C656.535 1690.35 791.856 1725.38 927.176 1760.41C1062.5 1795.45 1197.82 1830.48 1333.14 1865.51C1468.46 1900.55 1603.78 1935.58 1671.44 1953.1L1739.1 1970.61L1613.58 2455.46Z" fill="#FEFBF6"/>
</svg>
