<svg width="106" height="23" viewBox="0 0 106 23" fill="none" xmlns="http://www.w3.org/2000/svg">
<path d="M32.64 12.6C33.8133 12.664 34.704 12.984 35.312 13.56C35.9307 14.1253 36.24 14.8667 36.24 15.784C36.24 16.424 36.0853 16.9947 35.776 17.496C35.4667 17.9867 35.008 18.376 34.4 18.664C33.792 18.952 33.0507 19.096 32.176 19.096C31.3653 19.096 30.5973 18.968 29.872 18.712C29.1573 18.4453 28.5813 18.0933 28.144 17.656L28.704 16.744C29.0773 17.128 29.5733 17.4427 30.192 17.688C30.8107 17.9227 31.472 18.04 32.176 18.04C33.0933 18.04 33.8027 17.8427 34.304 17.448C34.8053 17.0427 35.056 16.488 35.056 15.784C35.056 15.0907 34.8053 14.5467 34.304 14.152C33.8027 13.7573 33.0453 13.56 32.032 13.56H31.232V12.712L34.336 8.824H28.608V7.8H35.808V8.616L32.64 12.6ZM40.651 12.392C42.2723 12.392 43.451 12.6853 44.187 13.272C44.9337 13.848 45.307 14.6587 45.307 15.704C45.307 16.3547 45.1523 16.936 44.843 17.448C44.5443 17.96 44.091 18.3653 43.483 18.664C42.875 18.952 42.1283 19.096 41.243 19.096C40.443 19.096 39.6803 18.968 38.955 18.712C38.2403 18.4453 37.6643 18.0933 37.227 17.656L37.787 16.744C38.1603 17.128 38.651 17.4427 39.259 17.688C39.867 17.9227 40.523 18.04 41.227 18.04C42.155 18.04 42.8697 17.832 43.371 17.416C43.883 17 44.139 16.4453 44.139 15.752C44.139 14.984 43.851 14.4027 43.275 14.008C42.7097 13.6133 41.7497 13.416 40.395 13.416H38.011L38.587 7.8H44.715V8.824H39.595L39.211 12.392H40.651ZM65.3365 10.584V19H64.2965V12.344L60.8885 17.976H60.3765L56.9685 12.328V19H55.9285V10.584H57.0805L60.6485 16.648L64.2805 10.584H65.3365ZM68.5691 10.584H69.7051V17.272L75.3211 10.584H76.3291V19H75.1931V12.312L69.5931 19H68.5691V10.584ZM79.5848 10.584H80.7208V14.312H86.0168V10.584H87.1528V19H86.0168V15.288H80.7208V19H79.5848V10.584ZM97.5336 10.584L93.3256 20.008C92.9843 20.7973 92.5896 21.3573 92.1416 21.688C91.6936 22.0187 91.155 22.184 90.5256 22.184C90.1203 22.184 89.7416 22.12 89.3896 21.992C89.0376 21.864 88.7336 21.672 88.4776 21.416L89.0056 20.568C89.4323 20.9947 89.9443 21.208 90.5416 21.208C90.9256 21.208 91.251 21.1013 91.5176 20.888C91.795 20.6747 92.051 20.312 92.2856 19.8L92.6536 18.984L88.8936 10.584H90.0776L93.2456 17.736L96.4136 10.584H97.5336ZM105.255 11.592H102.071V19H100.935V11.592H97.7508V10.584H105.255V11.592Z" fill="#25292D"/>
<path opacity="0.5" d="M12 0H6V2H12V0ZM8 13H10V7H8V13ZM16.03 6.39L17.45 4.97C17.02 4.46 16.55 3.98 16.04 3.56L14.62 4.98C13.07 3.74 11.12 3 9 3C4.03 3 0 7.03 0 12C0 16.97 4.02 21 9 21C13.98 21 18 16.97 18 12C18 9.88 17.26 7.93 16.03 6.39ZM9 19C5.13 19 2 15.87 2 12C2 8.13 5.13 5 9 5C12.87 5 16 8.13 16 12C16 15.87 12.87 19 9 19Z" fill="black"/>
</svg>
