<?xml version="1.0" encoding="utf-8"?>
<!-- Svg Vector Icons : http://www.onlinewebfonts.com/icon -->
<!DOCTYPE svg PUBLIC "-//W3C//DTD SVG 1.1//EN" "http://www.w3.org/Graphics/SVG/1.1/DTD/svg11.dtd">
<svg version="1.1" xmlns="http://www.w3.org/2000/svg" xmlns:xlink="http://www.w3.org/1999/xlink" x="0px" y="0px" viewBox="0 0 1000 1000" enable-background="new 0 0 1000 1000" xml:space="preserve">
<metadata> Svg Vector Icons : http://www.onlinewebfonts.com/icon </metadata>
<g><path d="M655.5,360.5c-9.2,0-18,1.6-26.1,4.4c0.1,0.2,0.2,0.4,0.3,0.6L604.8,378c-16.6-35.1-33.2-82.4-100.9-83.2c-43.3-0.5-66.8,37.5-85.8,63.2c2.7,2.4,5.3,4.9,7.7,7.6L408.3,387c-14.2-15.4-34.8-25.1-57.8-25.1c-42.8,0-77.6,33.8-77.6,75.4c0,41.7,34.7,75.5,77.6,75.5l-2,13.4h0.8v147.3h76.6V572h11.1v101.5h57.5V572h11.1v101.5H566V572h11.1v101.5h77.3l0,0V537.6c0,0-0.1,0-0.2,0l0.3-27.4c42.5,0,78-33.5,78-74.9C732.5,394,698.1,360.5,655.5,360.5z" fill="#FDB100"/><path d="M349.2,684.6h305.3v25.8H349.2V684.6z" fill="#FDB100"/><path d="M500,10C229.4,10,10,229.4,10,500c0,270.6,219.4,490,490,490c270.6,0,490-219.4,490-490C990,229.4,770.6,10,500,10z M679.5,534.7v175.7h0.5v22.2h-0.5h-25H349.2h-24h-1V535.3c-47.8-10-83.6-51.4-83.6-100.9c0-57,47.5-103.2,106.1-103.2c17.4,0,33.8,4.1,48.3,11.3c25.6-34.7,47.5-75.1,106-75.1c68,0,95.4,32.8,115.1,70.3c11.6-4.2,24.1-6.5,37.2-6.5c58.6,0,106.1,46.2,106.1,103.2C759.5,482.9,725.7,523.7,679.5,534.7z" fill="#FDB100"/></g>
</svg>