<svg width="128" height="111" viewBox="0 0 128 111" fill="none" xmlns="http://www.w3.org/2000/svg">
<path d="M6.69731 82.144C7.43331 82.3253 8.00931 82.656 8.42531 83.136C8.85198 83.616 9.06531 84.192 9.06531 84.864C9.06531 85.5147 8.86265 86.0853 8.45731 86.576C8.05198 87.0667 7.51331 87.4453 6.84131 87.712C6.16931 87.968 5.43865 88.096 4.64931 88.096C3.90265 88.096 3.16665 87.9787 2.44131 87.744C1.72665 87.4987 1.08131 87.136 0.505313 86.656L0.937313 85.808C1.42798 86.224 1.98798 86.544 2.61731 86.768C3.24665 86.9813 3.88131 87.088 4.52131 87.088C5.12931 87.088 5.68931 86.992 6.20131 86.8C6.71331 86.608 7.11865 86.336 7.41731 85.984C7.72665 85.6213 7.88131 85.1947 7.88131 84.704C7.88131 84.0533 7.62531 83.552 7.11331 83.2C6.60131 82.848 5.88131 82.672 4.95331 82.672H2.55331V81.712H4.88931C5.67865 81.712 6.29198 81.5467 6.72931 81.216C7.17731 80.8747 7.40131 80.4053 7.40131 79.808C7.40131 79.1467 7.11865 78.6293 6.55331 78.256C5.98798 77.872 5.27865 77.68 4.42531 77.68C3.89198 77.68 3.35331 77.76 2.80931 77.92C2.26531 78.0693 1.74798 78.2987 1.25731 78.608L0.857313 77.632C1.96665 76.9707 3.16665 76.64 4.45731 76.64C5.21465 76.64 5.90798 76.7627 6.53731 77.008C7.16665 77.2533 7.66265 77.6053 8.02531 78.064C8.39865 78.5227 8.58531 79.0613 8.58531 79.68C8.58531 80.2773 8.41998 80.7947 8.08931 81.232C7.75865 81.6587 7.29465 81.9627 6.69731 82.144ZM14.6292 79.52C15.7279 79.52 16.5705 79.7973 17.1572 80.352C17.7439 80.896 18.0372 81.7067 18.0372 82.784V88H16.9492V86.688C16.6932 87.1253 16.3145 87.4667 15.8132 87.712C15.3225 87.9573 14.7359 88.08 14.0532 88.08C13.1145 88.08 12.3679 87.856 11.8132 87.408C11.2585 86.96 10.9812 86.368 10.9812 85.632C10.9812 84.9173 11.2372 84.3413 11.7492 83.904C12.2719 83.4667 13.0985 83.248 14.2292 83.248H16.9012V82.736C16.9012 82.0107 16.6985 81.4613 16.2932 81.088C15.8879 80.704 15.2959 80.512 14.5172 80.512C13.9839 80.512 13.4719 80.6027 12.9812 80.784C12.4905 80.9547 12.0692 81.1947 11.7172 81.504L11.2052 80.656C11.6319 80.2933 12.1439 80.016 12.7412 79.824C13.3385 79.6213 13.9679 79.52 14.6292 79.52ZM14.2292 87.184C14.8692 87.184 15.4185 87.04 15.8772 86.752C16.3359 86.4533 16.6772 86.0267 16.9012 85.472V84.096H14.2612C12.8212 84.096 12.1012 84.5973 12.1012 85.6C12.1012 86.0907 12.2879 86.48 12.6612 86.768C13.0345 87.0453 13.5572 87.184 14.2292 87.184ZM27.0133 80.592H22.1973V88H21.0613V79.584H27.0133V80.592ZM32.9911 79.52C33.7804 79.52 34.4951 79.7013 35.1351 80.064C35.7751 80.416 36.2764 80.9173 36.6391 81.568C37.0017 82.2187 37.1831 82.96 37.1831 83.792C37.1831 84.6347 37.0017 85.3813 36.6391 86.032C36.2764 86.6827 35.7751 87.1893 35.1351 87.552C34.5057 87.904 33.7911 88.08 32.9911 88.08C32.3084 88.08 31.6897 87.9413 31.1351 87.664C30.5911 87.376 30.1431 86.96 29.7911 86.416V91.104H28.6551V79.584H29.7431V81.248C30.0844 80.6933 30.5324 80.2667 31.0871 79.968C31.6524 79.6693 32.2871 79.52 32.9911 79.52ZM32.9111 87.072C33.4977 87.072 34.0311 86.9387 34.5111 86.672C34.9911 86.3947 35.3644 86.0053 35.6311 85.504C35.9084 85.0027 36.0471 84.432 36.0471 83.792C36.0471 83.152 35.9084 82.5867 35.6311 82.096C35.3644 81.5947 34.9911 81.2053 34.5111 80.928C34.0311 80.6507 33.4977 80.512 32.9111 80.512C32.3137 80.512 31.7751 80.6507 31.2951 80.928C30.8257 81.2053 30.4524 81.5947 30.1751 82.096C29.9084 82.5867 29.7751 83.152 29.7751 83.792C29.7751 84.432 29.9084 85.0027 30.1751 85.504C30.4524 86.0053 30.8257 86.3947 31.2951 86.672C31.7751 86.9387 32.3137 87.072 32.9111 87.072ZM46.5414 79.584L42.3334 89.008C41.9921 89.7973 41.5974 90.3573 41.1494 90.688C40.7014 91.0187 40.1628 91.184 39.5334 91.184C39.1281 91.184 38.7494 91.12 38.3974 90.992C38.0454 90.864 37.7414 90.672 37.4854 90.416L38.0134 89.568C38.4401 89.9947 38.9521 90.208 39.5494 90.208C39.9334 90.208 40.2588 90.1013 40.5254 89.888C40.8028 89.6747 41.0588 89.312 41.2934 88.8L41.6614 87.984L37.9014 79.584H39.0854L42.2534 86.736L45.4214 79.584H46.5414ZM52.1886 83.616C52.7859 83.7547 53.2446 83.9947 53.5646 84.336C53.8952 84.6773 54.0606 85.0933 54.0606 85.584C54.0606 86.0747 53.8899 86.512 53.5486 86.896C53.2179 87.28 52.7646 87.5787 52.1886 87.792C51.6126 87.9947 50.9779 88.096 50.2846 88.096C49.6766 88.096 49.0792 88.0107 48.4926 87.84C47.9059 87.6587 47.3939 87.3973 46.9566 87.056L47.3406 86.208C47.7246 86.496 48.1726 86.72 48.6846 86.88C49.1966 87.04 49.7139 87.12 50.2366 87.12C51.0152 87.12 51.6499 86.976 52.1406 86.688C52.6419 86.3893 52.8926 85.9893 52.8926 85.488C52.8926 85.04 52.6899 84.6933 52.2846 84.448C51.8792 84.192 51.3246 84.064 50.6206 84.064H49.1806V83.232H50.5566C51.1859 83.232 51.6926 83.1147 52.0766 82.88C52.4606 82.6347 52.6526 82.3093 52.6526 81.904C52.6526 81.456 52.4339 81.104 51.9966 80.848C51.5699 80.592 51.0099 80.464 50.3166 80.464C49.4099 80.464 48.5139 80.6933 47.6286 81.152L47.3086 80.272C48.3112 79.7493 49.3512 79.488 50.4286 79.488C51.0686 79.488 51.6446 79.584 52.1566 79.776C52.6792 79.9573 53.0846 80.2187 53.3726 80.56C53.6712 80.9013 53.8206 81.296 53.8206 81.744C53.8206 82.1707 53.6712 82.5493 53.3726 82.88C53.0846 83.2107 52.6899 83.456 52.1886 83.616ZM56.6394 79.584H57.7754V86.272L63.3914 79.584H64.3994V88H63.2634V81.312L57.6634 88H56.6394V79.584ZM73.5751 80.592H70.3911V88H69.2551V80.592H66.0711V79.584H73.5751V80.592ZM82.1869 84.144H75.1469C75.2109 85.0187 75.5469 85.728 76.1549 86.272C76.7629 86.8053 77.5309 87.072 78.4589 87.072C78.9816 87.072 79.4616 86.9813 79.8989 86.8C80.3363 86.608 80.7149 86.3307 81.0349 85.968L81.6749 86.704C81.3016 87.152 80.8323 87.4933 80.2669 87.728C79.7123 87.9627 79.0989 88.08 78.4269 88.08C77.5629 88.08 76.7949 87.8987 76.1229 87.536C75.4616 87.1627 74.9443 86.6507 74.5709 86C74.1976 85.3493 74.0109 84.6133 74.0109 83.792C74.0109 82.9707 74.1869 82.2347 74.5389 81.584C74.9016 80.9333 75.3923 80.4267 76.0109 80.064C76.6403 79.7013 77.3443 79.52 78.1229 79.52C78.9016 79.52 79.6003 79.7013 80.2189 80.064C80.8376 80.4267 81.3229 80.9333 81.6749 81.584C82.0269 82.224 82.2029 82.96 82.2029 83.792L82.1869 84.144ZM78.1229 80.496C77.3123 80.496 76.6296 80.7573 76.0749 81.28C75.5309 81.792 75.2216 82.464 75.1469 83.296H81.1149C81.0403 82.464 80.7256 81.792 80.1709 81.28C79.6269 80.7573 78.9443 80.496 78.1229 80.496ZM99.0651 83.776C99.0651 85.088 98.6331 86.1173 97.7691 86.864C96.9051 87.6107 95.6837 88.016 94.1051 88.08V91.104H93.0011V88.096C91.4331 88.032 90.2171 87.6267 89.3531 86.88C88.4997 86.1227 88.0731 85.088 88.0731 83.776C88.0731 82.4747 88.4997 81.456 89.3531 80.72C90.2171 79.984 91.4331 79.584 93.0011 79.52V76.128H94.1051V79.52C95.6837 79.5947 96.9051 80 97.7691 80.736C98.6331 81.472 99.0651 82.4853 99.0651 83.776ZM89.1931 83.776C89.1931 84.7787 89.5131 85.5627 90.1531 86.128C90.8037 86.6933 91.7531 87.0133 93.0011 87.088V80.528C91.7637 80.592 90.8197 80.9067 90.1691 81.472C89.5184 82.0267 89.1931 82.7947 89.1931 83.776ZM94.1051 87.088C95.3531 87.024 96.3024 86.7093 96.9531 86.144C97.6144 85.5787 97.9451 84.7893 97.9451 83.776C97.9451 82.784 97.6144 82.0107 96.9531 81.456C96.3024 80.9013 95.3531 80.592 94.1051 80.528V87.088ZM104.94 88.08C104.129 88.08 103.398 87.8987 102.748 87.536C102.097 87.1627 101.585 86.6507 101.212 86C100.838 85.3493 100.652 84.6133 100.652 83.792C100.652 82.9707 100.838 82.2347 101.212 81.584C101.585 80.9333 102.097 80.4267 102.748 80.064C103.398 79.7013 104.129 79.52 104.94 79.52C105.75 79.52 106.481 79.7013 107.132 80.064C107.782 80.4267 108.289 80.9333 108.652 81.584C109.025 82.2347 109.212 82.9707 109.212 83.792C109.212 84.6133 109.025 85.3493 108.652 86C108.289 86.6507 107.782 87.1627 107.132 87.536C106.481 87.8987 105.75 88.08 104.94 88.08ZM104.94 87.072C105.537 87.072 106.07 86.9387 106.54 86.672C107.02 86.3947 107.393 86.0053 107.66 85.504C107.926 85.0027 108.06 84.432 108.06 83.792C108.06 83.152 107.926 82.5813 107.66 82.08C107.393 81.5787 107.02 81.1947 106.54 80.928C106.07 80.6507 105.537 80.512 104.94 80.512C104.342 80.512 103.804 80.6507 103.324 80.928C102.854 81.1947 102.481 81.5787 102.204 82.08C101.937 82.5813 101.804 83.152 101.804 83.792C101.804 84.432 101.937 85.0027 102.204 85.504C102.481 86.0053 102.854 86.3947 103.324 86.672C103.804 86.9387 104.342 87.072 104.94 87.072ZM117.247 80.592H114.063V88H112.927V80.592H109.743V79.584H117.247V80.592ZM121.971 88.08C121.16 88.08 120.429 87.8987 119.779 87.536C119.128 87.1627 118.616 86.6507 118.243 86C117.869 85.3493 117.683 84.6133 117.683 83.792C117.683 82.9707 117.869 82.2347 118.243 81.584C118.616 80.9333 119.128 80.4267 119.779 80.064C120.429 79.7013 121.16 79.52 121.971 79.52C122.781 79.52 123.512 79.7013 124.163 80.064C124.813 80.4267 125.32 80.9333 125.683 81.584C126.056 82.2347 126.243 82.9707 126.243 83.792C126.243 84.6133 126.056 85.3493 125.683 86C125.32 86.6507 124.813 87.1627 124.163 87.536C123.512 87.8987 122.781 88.08 121.971 88.08ZM121.971 87.072C122.568 87.072 123.101 86.9387 123.571 86.672C124.051 86.3947 124.424 86.0053 124.691 85.504C124.957 85.0027 125.091 84.432 125.091 83.792C125.091 83.152 124.957 82.5813 124.691 82.08C124.424 81.5787 124.051 81.1947 123.571 80.928C123.101 80.6507 122.568 80.512 121.971 80.512C121.373 80.512 120.835 80.6507 120.355 80.928C119.885 81.1947 119.512 81.5787 119.235 82.08C118.968 82.5813 118.835 83.152 118.835 83.792C118.835 84.432 118.968 85.0027 119.235 85.504C119.512 86.0053 119.885 86.3947 120.355 86.672C120.835 86.9387 121.373 87.072 121.971 87.072ZM6.05238 100.592H1.23638V108H0.100375V99.584H6.05238V100.592ZM10.7755 108.08C9.96483 108.08 9.23417 107.899 8.5835 107.536C7.93283 107.163 7.42083 106.651 7.0475 106C6.67417 105.349 6.4875 104.613 6.4875 103.792C6.4875 102.971 6.67417 102.235 7.0475 101.584C7.42083 100.933 7.93283 100.427 8.5835 100.064C9.23417 99.7013 9.96483 99.52 10.7755 99.52C11.5862 99.52 12.3168 99.7013 12.9675 100.064C13.6182 100.427 14.1248 100.933 14.4875 101.584C14.8608 102.235 15.0475 102.971 15.0475 103.792C15.0475 104.613 14.8608 105.349 14.4875 106C14.1248 106.651 13.6182 107.163 12.9675 107.536C12.3168 107.899 11.5862 108.08 10.7755 108.08ZM10.7755 107.072C11.3728 107.072 11.9062 106.939 12.3755 106.672C12.8555 106.395 13.2288 106.005 13.4955 105.504C13.7622 105.003 13.8955 104.432 13.8955 103.792C13.8955 103.152 13.7622 102.581 13.4955 102.08C13.2288 101.579 12.8555 101.195 12.3755 100.928C11.9062 100.651 11.3728 100.512 10.7755 100.512C10.1782 100.512 9.6395 100.651 9.1595 100.928C8.69017 101.195 8.31683 101.579 8.0395 102.08C7.77283 102.581 7.6395 103.152 7.6395 103.792C7.6395 104.432 7.77283 105.003 8.0395 105.504C8.31683 106.005 8.69017 106.395 9.1595 106.672C9.6395 106.939 10.1782 107.072 10.7755 107.072ZM23.0829 100.592H19.8989V108H18.7629V100.592H15.5789V99.584H23.0829V100.592ZM27.8068 108.08C26.9961 108.08 26.2654 107.899 25.6148 107.536C24.9641 107.163 24.4521 106.651 24.0788 106C23.7054 105.349 23.5188 104.613 23.5188 103.792C23.5188 102.971 23.7054 102.235 24.0788 101.584C24.4521 100.933 24.9641 100.427 25.6148 100.064C26.2654 99.7013 26.9961 99.52 27.8068 99.52C28.6174 99.52 29.3481 99.7013 29.9988 100.064C30.6494 100.427 31.1561 100.933 31.5188 101.584C31.8921 102.235 32.0788 102.971 32.0788 103.792C32.0788 104.613 31.8921 105.349 31.5188 106C31.1561 106.651 30.6494 107.163 29.9988 107.536C29.3481 107.899 28.6174 108.08 27.8068 108.08ZM27.8068 107.072C28.4041 107.072 28.9374 106.939 29.4068 106.672C29.8868 106.395 30.2601 106.005 30.5268 105.504C30.7934 105.003 30.9268 104.432 30.9268 103.792C30.9268 103.152 30.7934 102.581 30.5268 102.08C30.2601 101.579 29.8868 101.195 29.4068 100.928C28.9374 100.651 28.4041 100.512 27.8068 100.512C27.2094 100.512 26.6708 100.651 26.1908 100.928C25.7214 101.195 25.3481 101.579 25.0707 102.08C24.8041 102.581 24.6708 103.152 24.6708 103.792C24.6708 104.432 24.8041 105.003 25.0707 105.504C25.3481 106.005 25.7214 106.395 26.1908 106.672C26.6708 106.939 27.2094 107.072 27.8068 107.072ZM39.8666 103.648C41.008 103.915 41.5786 104.603 41.5786 105.712C41.5786 106.448 41.3066 107.013 40.7626 107.408C40.2186 107.803 39.408 108 38.3306 108H34.5066V99.584H38.2186C39.1786 99.584 39.9306 99.7707 40.4746 100.144C41.0186 100.517 41.2906 101.051 41.2906 101.744C41.2906 102.203 41.1626 102.597 40.9066 102.928C40.6613 103.248 40.3146 103.488 39.8666 103.648ZM35.6106 103.328H38.1386C38.7893 103.328 39.2853 103.205 39.6266 102.96C39.9786 102.715 40.1546 102.357 40.1546 101.888C40.1546 101.419 39.9786 101.067 39.6266 100.832C39.2853 100.597 38.7893 100.48 38.1386 100.48H35.6106V103.328ZM38.2826 107.104C39.008 107.104 39.552 106.987 39.9146 106.752C40.2773 106.517 40.4586 106.149 40.4586 105.648C40.4586 105.147 40.2933 104.779 39.9626 104.544C39.632 104.299 39.1093 104.176 38.3946 104.176H35.6106V107.104H38.2826ZM47.713 108.08C46.9023 108.08 46.1717 107.899 45.521 107.536C44.8703 107.163 44.3583 106.651 43.985 106C43.6117 105.349 43.425 104.613 43.425 103.792C43.425 102.971 43.6117 102.235 43.985 101.584C44.3583 100.933 44.8703 100.427 45.521 100.064C46.1717 99.7013 46.9023 99.52 47.713 99.52C48.5237 99.52 49.2543 99.7013 49.905 100.064C50.5557 100.427 51.0623 100.933 51.425 101.584C51.7983 102.235 51.985 102.971 51.985 103.792C51.985 104.613 51.7983 105.349 51.425 106C51.0623 106.651 50.5557 107.163 49.905 107.536C49.2543 107.899 48.5237 108.08 47.713 108.08ZM47.713 107.072C48.3103 107.072 48.8437 106.939 49.313 106.672C49.793 106.395 50.1663 106.005 50.433 105.504C50.6997 105.003 50.833 104.432 50.833 103.792C50.833 103.152 50.6997 102.581 50.433 102.08C50.1663 101.579 49.793 101.195 49.313 100.928C48.8437 100.651 48.3103 100.512 47.713 100.512C47.1157 100.512 46.577 100.651 46.097 100.928C45.6277 101.195 45.2543 101.579 44.977 102.08C44.7103 102.581 44.577 103.152 44.577 103.792C44.577 104.432 44.7103 105.003 44.977 105.504C45.2543 106.005 45.6277 106.395 46.097 106.672C46.577 106.939 47.1157 107.072 47.713 107.072ZM60.3649 100.592H55.5489V108H54.4129V99.584H60.3649V100.592ZM65.088 108.08C64.2773 108.08 63.5467 107.899 62.896 107.536C62.2453 107.163 61.7333 106.651 61.36 106C60.9867 105.349 60.8 104.613 60.8 103.792C60.8 102.971 60.9867 102.235 61.36 101.584C61.7333 100.933 62.2453 100.427 62.896 100.064C63.5467 99.7013 64.2773 99.52 65.088 99.52C65.8987 99.52 66.6293 99.7013 67.28 100.064C67.9307 100.427 68.4373 100.933 68.8 101.584C69.1733 102.235 69.36 102.971 69.36 103.792C69.36 104.613 69.1733 105.349 68.8 106C68.4373 106.651 67.9307 107.163 67.28 107.536C66.6293 107.899 65.8987 108.08 65.088 108.08ZM65.088 107.072C65.6853 107.072 66.2187 106.939 66.688 106.672C67.168 106.395 67.5413 106.005 67.808 105.504C68.0747 105.003 68.208 104.432 68.208 103.792C68.208 103.152 68.0747 102.581 67.808 102.08C67.5413 101.579 67.168 101.195 66.688 100.928C66.2187 100.651 65.6853 100.512 65.088 100.512C64.4907 100.512 63.952 100.651 63.472 100.928C63.0027 101.195 62.6293 101.579 62.352 102.08C62.0853 102.581 61.952 103.152 61.952 103.792C61.952 104.432 62.0853 105.003 62.352 105.504C62.6293 106.005 63.0027 106.395 63.472 106.672C63.952 106.939 64.4907 107.072 65.088 107.072ZM80.0554 99.792C80.834 99.792 81.5274 99.968 82.1354 100.32C82.754 100.661 83.234 101.147 83.5754 101.776C83.9167 102.395 84.0874 103.104 84.0874 103.904C84.0874 104.725 83.906 105.456 83.5434 106.096C83.1914 106.725 82.6954 107.216 82.0554 107.568C81.4154 107.92 80.6794 108.096 79.8474 108.096C78.45 108.096 77.3674 107.605 76.5994 106.624C75.8314 105.643 75.4474 104.288 75.4474 102.56C75.4474 100.757 75.7887 99.376 76.4714 98.416C77.1647 97.456 78.242 96.8053 79.7034 96.464L83.4794 95.6L83.6714 96.64L80.1194 97.456C78.914 97.7227 78.0287 98.1973 77.4634 98.88C76.898 99.552 76.5887 100.549 76.5354 101.872C76.8767 101.221 77.3514 100.715 77.9594 100.352C78.5674 99.9787 79.266 99.792 80.0554 99.792ZM79.8794 107.152C80.466 107.152 80.9887 107.019 81.4474 106.752C81.9167 106.475 82.2794 106.091 82.5354 105.6C82.802 105.109 82.9354 104.555 82.9354 103.936C82.9354 103.317 82.8074 102.773 82.5514 102.304C82.2954 101.835 81.9327 101.472 81.4634 101.216C81.0047 100.949 80.4767 100.816 79.8794 100.816C79.282 100.816 78.7487 100.949 78.2794 101.216C77.8207 101.472 77.458 101.835 77.1914 102.304C76.9354 102.773 76.8074 103.317 76.8074 103.936C76.8074 104.555 76.9354 105.109 77.1914 105.6C77.458 106.091 77.826 106.475 78.2954 106.752C78.7647 107.019 79.2927 107.152 79.8794 107.152ZM93.3554 99.584V108H92.2194V100.592H88.1874L88.0754 102.672C87.99 104.421 87.7874 105.765 87.4674 106.704C87.1474 107.643 86.5767 108.112 85.7554 108.112C85.5314 108.112 85.2594 108.069 84.9394 107.984L85.0194 107.008C85.2114 107.051 85.3447 107.072 85.4194 107.072C85.8567 107.072 86.1874 106.869 86.4114 106.464C86.6354 106.059 86.7847 105.557 86.8594 104.96C86.934 104.363 86.998 103.573 87.0514 102.592L87.1954 99.584H93.3554ZM103.817 99.52C104.606 99.52 105.315 99.7013 105.945 100.064C106.585 100.427 107.086 100.933 107.449 101.584C107.811 102.235 107.993 102.971 107.993 103.792C107.993 104.613 107.811 105.349 107.449 106C107.086 106.651 106.585 107.163 105.945 107.536C105.315 107.899 104.606 108.08 103.817 108.08C103.07 108.08 102.393 107.92 101.785 107.6C101.177 107.269 100.681 106.816 100.297 106.24C99.9234 105.664 99.7048 105.003 99.6408 104.256H97.7208V108H96.5848V99.584H97.7208V103.216H99.6568C99.7421 102.491 99.9714 101.851 100.345 101.296C100.729 100.731 101.219 100.293 101.817 99.984C102.414 99.6747 103.081 99.52 103.817 99.52ZM103.817 107.088C104.393 107.088 104.91 106.949 105.369 106.672C105.838 106.395 106.206 106.005 106.473 105.504C106.739 105.003 106.873 104.432 106.873 103.792C106.873 103.152 106.739 102.581 106.473 102.08C106.206 101.579 105.838 101.195 105.369 100.928C104.91 100.651 104.393 100.512 103.817 100.512C103.241 100.512 102.718 100.651 102.249 100.928C101.79 101.195 101.427 101.579 101.161 102.08C100.894 102.581 100.761 103.152 100.761 103.792C100.761 104.432 100.894 105.003 101.161 105.504C101.427 106.005 101.79 106.395 102.249 106.672C102.718 106.949 103.241 107.088 103.817 107.088ZM118.59 107.008V110.032H117.518V108H109.982V110.032H108.91V107.008H109.39C109.955 106.976 110.339 106.56 110.542 105.76C110.744 104.96 110.883 103.84 110.958 102.4L111.07 99.584H117.278V107.008H118.59ZM111.998 102.464C111.944 103.659 111.843 104.645 111.694 105.424C111.544 106.192 111.278 106.72 110.894 107.008H116.142V100.592H112.094L111.998 102.464ZM123.7 99.52C124.798 99.52 125.641 99.7973 126.228 100.352C126.814 100.896 127.108 101.707 127.108 102.784V108H126.02V106.688C125.764 107.125 125.385 107.467 124.884 107.712C124.393 107.957 123.806 108.08 123.124 108.08C122.185 108.08 121.438 107.856 120.884 107.408C120.329 106.96 120.052 106.368 120.052 105.632C120.052 104.917 120.308 104.341 120.82 103.904C121.342 103.467 122.169 103.248 123.299 103.248H125.972V102.736C125.972 102.011 125.769 101.461 125.364 101.088C124.958 100.704 124.366 100.512 123.588 100.512C123.054 100.512 122.542 100.603 122.052 100.784C121.561 100.955 121.14 101.195 120.788 101.504L120.276 100.656C120.702 100.293 121.214 100.016 121.812 99.824C122.409 99.6213 123.038 99.52 123.7 99.52ZM123.299 107.184C123.94 107.184 124.489 107.04 124.948 106.752C125.406 106.453 125.748 106.027 125.972 105.472V104.096H123.332C121.892 104.096 121.172 104.597 121.172 105.6C121.172 106.091 121.358 106.48 121.732 106.768C122.105 107.045 122.628 107.184 123.299 107.184Z" fill="#F29E1F"/>
<path d="M54.5658 3.52275C57.1894 1.26035 60.5356 0.0108636 64 0C71.0613 0 76.9229 5.25 77.5608 12.0199C81.7397 12.6105 85 16.1096 85 20.4041C85 25.1186 81.0677 28.875 76.3034 28.875H69.25C68.9019 28.875 68.5681 28.7367 68.3219 28.4906C68.0758 28.2444 67.9375 27.9106 67.9375 27.5625C67.9375 27.2144 68.0758 26.8806 68.3219 26.6344C68.5681 26.3883 68.9019 26.25 69.25 26.25H76.306C79.6949 26.25 82.375 23.5935 82.375 20.4041C82.375 17.2121 79.6975 14.5556 76.3034 14.5556H74.9909V13.2431C74.9935 7.41563 70.111 2.625 64 2.625C61.1647 2.63633 58.4267 3.66039 56.2799 5.5125C54.2928 7.224 53.2533 9.28725 53.2533 10.9069V12.0829L52.0851 12.2115C48.418 12.6131 45.625 15.624 45.625 19.2097C45.625 23.0606 48.8537 26.25 52.9251 26.25H58.75C59.0981 26.25 59.4319 26.3883 59.6781 26.6344C59.9242 26.8806 60.0625 27.2144 60.0625 27.5625C60.0625 27.9106 59.9242 28.2444 59.6781 28.4906C59.4319 28.7367 59.0981 28.875 58.75 28.875H52.9251C47.4835 28.875 43 24.5858 43 19.2097C43 14.5819 46.3232 10.7494 50.7227 9.77812C51.0981 7.51275 52.555 5.25525 54.5658 3.52275Z" fill="#F29E1F"/>
<path d="M63.0709 41.6168C63.1929 41.739 63.3377 41.836 63.4972 41.9021C63.6566 41.9683 63.8276 42.0024 64.0002 42.0024C64.1728 42.0024 64.3438 41.9683 64.5032 41.9021C64.6627 41.836 64.8075 41.739 64.9294 41.6168L72.8044 33.7418C73.0509 33.4953 73.1893 33.161 73.1893 32.8125C73.1893 32.464 73.0509 32.1297 72.8044 31.8833C72.558 31.6368 72.2237 31.4983 71.8752 31.4983C71.5267 31.4983 71.1924 31.6368 70.9459 31.8833L65.3127 37.5191V14.4375C65.3127 14.0894 65.1744 13.7556 64.9283 13.5094C64.6821 13.2633 64.3483 13.125 64.0002 13.125C63.6521 13.125 63.3183 13.2633 63.0721 13.5094C62.826 13.7556 62.6877 14.0894 62.6877 14.4375V37.5191L57.0544 31.8833C56.808 31.6368 56.4737 31.4983 56.1252 31.4983C55.7767 31.4983 55.4424 31.6368 55.1959 31.8833C54.9495 32.1297 54.811 32.464 54.811 32.8125C54.811 33.161 54.9495 33.4953 55.1959 33.7418L63.0709 41.6168Z" fill="#F29E1F"/>
</svg>
